<?xml version="1.0" encoding="UTF-8"?>
<svg width="24px" height="24px" viewBox="0 0 24 24" version="1.1" xmlns="http://www.w3.org/2000/svg" xmlns:xlink="http://www.w3.org/1999/xlink">
    <!-- Generator: Sketch 53.2 (72643) - https://sketchapp.com -->
    <title>move-24px</title>
    <desc>Created with Sketch.</desc>
    <g id="move-24px" stroke="none" stroke-width="1" fill="none" fill-rule="evenodd">
        <g id="arrow_right_alt-24px">
            <polygon id="Path" points="0 0 24 0 24 24 0 24"></polygon>
            <path d="M13,6.99 L14.79,6.99 C15.24,6.99 15.46,6.45 15.14,6.14 L12.35,3.36 C12.15,3.17 11.84,3.17 11.64,3.36 L8.86,6.14 C8.54,6.45 8.76,6.99 9.21,6.99 L11,6.99 L11,17.01 L9.21,17.01 C8.76,17.01 8.54,17.55 8.86,17.86 L11.65,20.64 C11.85,20.83 12.16,20.83 12.36,20.64 L15.15,17.86 C15.47,17.55 15.24,17.01 14.8,17.01 L13,17.01 L13,6.99 Z" id="Path" fill="#000000" fill-rule="nonzero"></path>
            <path d="M12.9960699,6.9939301 L14.7860699,6.9939301 C15.2360699,6.9939301 15.4560699,6.4539301 15.1360699,6.1439301 L12.3460699,3.3639301 C12.1460699,3.1739301 11.8360699,3.1739301 11.6360699,3.3639301 L8.8560699,6.1439301 C8.5360699,6.4539301 8.7560699,6.9939301 9.2060699,6.9939301 L10.9960699,6.9939301 L10.9960699,17.0139301 L9.2060699,17.0139301 C8.7560699,17.0139301 8.5360699,17.5539301 8.8560699,17.8639301 L11.6460699,20.6439301 C11.8460699,20.8339301 12.1560699,20.8339301 12.3560699,20.6439301 L15.1460699,17.8639301 C15.4660699,17.5539301 15.2360699,17.0139301 14.7960699,17.0139301 L12.9960699,17.0139301 L12.9960699,6.9939301 Z" id="Path" fill="#000000" fill-rule="nonzero" transform="translate(12.000000, 12.003930) rotate(90.000000) translate(-12.000000, -12.003930) "></path>
        </g>
    </g>
</svg>